<svg width="48" height="48" viewBox="0 0 48 48" fill="none" xmlns="http://www.w3.org/2000/svg">
<path d="M8 42C7.43333 42 6.95833 41.8083 6.575 41.425C6.19167 41.0417 6 40.5667 6 40C6 39.4333 6.19167 38.9583 6.575 38.575C6.95833 38.1917 7.43333 38 8 38H10V26H8C7.43333 26 6.95833 25.8083 6.575 25.425C6.19167 25.0417 6 24.5667 6 24C6 23.4333 6.19167 22.9583 6.575 22.575C6.95833 22.1917 7.43333 22 8 22H10V10H8C7.43333 10 6.95833 9.80833 6.575 9.425C6.19167 9.04167 6 8.56667 6 8C6 7.43333 6.19167 6.95833 6.575 6.575C6.95833 6.19167 7.43333 6 8 6H40C40.5667 6 41.0417 6.19167 41.425 6.575C41.8083 6.95833 42 7.43333 42 8C42 8.56667 41.8083 9.04167 41.425 9.425C41.0417 9.80833 40.5667 10 40 10H38V22H40C40.5667 22 41.0417 22.1917 41.425 22.575C41.8083 22.9583 42 23.4333 42 24C42 24.5667 41.8083 25.0417 41.425 25.425C41.0417 25.8083 40.5667 26 40 26H38V38H40C40.5667 38 41.0417 38.1917 41.425 38.575C41.8083 38.9583 42 39.4333 42 40C42 40.5667 41.8083 41.0417 41.425 41.425C41.0417 41.8083 40.5667 42 40 42H8ZM14 38H34V26C33.4333 26 32.9583 25.8083 32.575 25.425C32.1917 25.0417 32 24.5667 32 24C32 23.4333 32.1917 22.9583 32.575 22.575C32.9583 22.1917 33.4333 22 34 22V10H14V22C14.5667 22 15.0417 22.1917 15.425 22.575C15.8083 22.9583 16 23.4333 16 24C16 24.5667 15.8083 25.0417 15.425 25.425C15.0417 25.8083 14.5667 26 14 26V38ZM24 32C25.6667 32 27.0833 31.425 28.25 30.275C29.4167 29.125 30 27.7333 30 26.1C30 24.8 29.625 23.6833 28.875 22.75C28.125 21.8167 26.5 19.9 24 17C21.5 19.8667 19.875 21.775 19.125 22.725C18.375 23.675 18 24.8 18 26.1C18 27.7333 18.5833 29.125 19.75 30.275C20.9167 31.425 22.3333 32 24 32Z" fill="#FFF6F3"/>
</svg>
