<svg width="42" height="42" viewBox="0 0 48 48" fill="none" xmlns="http://www.w3.org/2000/svg">
<path d="M7.4 35.15C6.33333 33.55 5.5 31.8083 4.9 29.925C4.3 28.0417 4 26.0667 4 24C4 21.9 4.3 19.9167 4.9 18.05C5.5 16.1833 6.33333 14.45 7.4 12.85L10.75 15.05C9.88333 16.3167 9.20833 17.7083 8.725 19.225C8.24167 20.7417 8 22.3333 8 24C8 25.6667 8.24167 27.25 8.725 28.75C9.20833 30.25 9.88333 31.6333 10.75 32.9L7.4 35.15ZM24 36C20.6667 36 17.8333 34.8333 15.5 32.5C13.1667 30.1667 12 27.3333 12 24C12 20.6667 13.1667 17.8333 15.5 15.5C17.8333 13.1667 20.6667 12 24 12C27.3333 12 30.1667 13.1667 32.5 15.5C34.8333 17.8333 36 20.6667 36 24C36 27.3333 34.8333 30.1667 32.5 32.5C30.1667 34.8333 27.3333 36 24 36ZM24 32C26.2 32 28.0833 31.2167 29.65 29.65C31.2167 28.0833 32 26.2 32 24C32 21.8 31.2167 19.9167 29.65 18.35C28.0833 16.7833 26.2 16 24 16C21.8 16 19.9167 16.7833 18.35 18.35C16.7833 19.9167 16 21.8 16 24C16 26.2 16.7833 28.0833 18.35 29.65C19.9167 31.2167 21.8 32 24 32ZM40.55 35.15L37.25 32.9C38.1167 31.6333 38.7917 30.25 39.275 28.75C39.7583 27.25 40 25.6667 40 24C40 22.3333 39.7583 20.7417 39.275 19.225C38.7917 17.7083 38.1167 16.3167 37.25 15.05L40.55 12.85C41.6167 14.45 42.4583 16.1833 43.075 18.05C43.6917 19.9167 44 21.9 44 24C44 26.0667 43.6917 28.0417 43.075 29.925C42.4583 31.8083 41.6167 33.55 40.55 35.15Z" fill="#FFF6F3"/>
</svg>
